<svg width="15" height="15" viewBox="0 0 15 15" fill="none" xmlns="http://www.w3.org/2000/svg">
<path d="M9.04692 9.84384L11.9132 6.97759C12.089 6.80172 12.1877 6.56322 12.1876 6.31456C12.1876 6.06589 12.0887 5.82744 11.9129 5.65165C11.737 5.47586 11.4985 5.37714 11.2498 5.3772C11.0012 5.37726 10.7627 5.47609 10.5869 5.65196L7.72129 8.51821C7.69226 8.54732 7.65778 8.57041 7.61981 8.58616C7.58185 8.60191 7.54115 8.61002 7.50004 8.61002C7.45894 8.61002 7.41824 8.60191 7.38027 8.58616C7.34231 8.57041 7.30782 8.54732 7.27879 8.51821L4.41317 5.65196C4.23738 5.47609 3.99893 5.37726 3.75026 5.3772C3.5016 5.37714 3.2631 5.47586 3.08723 5.65165C2.91136 5.82744 2.81252 6.06589 2.81246 6.31456C2.8124 6.56322 2.91113 6.80172 3.08692 6.97759L5.95317 9.84384C6.36381 10.2534 6.9201 10.4833 7.50004 10.4833C8.07999 10.4833 8.63627 10.2534 9.04692 9.84384Z" fill="#07A69C"/>
</svg>
