<svg width="15" height="15" viewBox="0 0 15 15" fill="none" xmlns="http://www.w3.org/2000/svg">
<path d="M9.84372 5.9532L6.97747 3.08695C6.8016 2.91117 6.5631 2.81244 6.31443 2.8125C6.06577 2.81256 5.82732 2.9114 5.65153 3.08727C5.47574 3.26314 5.37702 3.50164 5.37708 3.7503C5.37713 3.99896 5.47597 4.23742 5.65184 4.4132L8.51809 7.27883C8.54719 7.30786 8.57028 7.34234 8.58604 7.38031C8.60179 7.41827 8.6099 7.45897 8.6099 7.50008C8.6099 7.54118 8.60179 7.58188 8.58604 7.61985C8.57028 7.65782 8.54719 7.6923 8.51809 7.72133L5.65184 10.587C5.47597 10.7627 5.37713 11.0012 5.37708 11.2499C5.37702 11.4985 5.47574 11.737 5.65153 11.9129C5.82732 12.0888 6.06577 12.1876 6.31443 12.1877C6.5631 12.1877 6.8016 12.089 6.97747 11.9132L9.84372 9.04695C10.2532 8.63631 10.4832 8.08003 10.4832 7.50008C10.4832 6.92013 10.2532 6.36385 9.84372 5.9532Z" fill="white"/>
</svg>
