<svg width="11" height="11" viewBox="0 0 11 11" fill="none" xmlns="http://www.w3.org/2000/svg">
<g clip-path="url(#clip0_147_4012)">
<path d="M3.85725 5.5001H3.03582C2.5828 5.5001 2.21439 5.86852 2.21439 6.32153V7.14296C2.21439 7.59598 2.5828 7.96439 3.03582 7.96439H3.85725C4.31027 7.96439 4.67868 7.59598 4.67868 7.14296V6.32153C4.67868 5.86852 4.31027 5.5001 3.85725 5.5001ZM3.03582 7.14296V6.32153H3.85725V7.14296H3.03582ZM8.3751 1.39296H7.96439V0.982247C7.96439 0.755533 7.7808 0.571533 7.55368 0.571533C7.32655 0.571533 7.14296 0.755533 7.14296 0.982247V1.39296H3.85725V0.982247C3.85725 0.755533 3.67366 0.571533 3.44653 0.571533C3.21941 0.571533 3.03582 0.755533 3.03582 0.982247V1.39296H2.6251C1.49277 1.39296 0.571533 2.31419 0.571533 3.44653V8.3751C0.571533 9.50744 1.49277 10.4287 2.6251 10.4287H8.3751C9.50744 10.4287 10.4287 9.50744 10.4287 8.3751V3.44653C10.4287 2.31419 9.50744 1.39296 8.3751 1.39296ZM2.6251 2.21439H8.3751C9.05443 2.21439 9.60725 2.76721 9.60725 3.44653V3.85725H1.39296V3.44653C1.39296 2.76721 1.94578 2.21439 2.6251 2.21439ZM8.3751 9.60725H2.6251C1.94578 9.60725 1.39296 9.05443 1.39296 8.3751V4.67868H9.60725V8.3751C9.60725 9.05443 9.05443 9.60725 8.3751 9.60725Z" fill="white"/>
</g>
<defs>
<clipPath id="clip0_147_4012">
<rect width="9.85714" height="9.85714" fill="white" transform="translate(0.571533 0.571533)"/>
</clipPath>
</defs>
</svg>
