<svg width="25" height="25" viewBox="0 0 25 25" fill="none" xmlns="http://www.w3.org/2000/svg">
<g clip-path="url(#clip0_90_33)">
<path d="M13.5417 1.04162C13.5417 0.765354 13.6514 0.500402 13.8468 0.305052C14.0421 0.109701 14.3071 -4.54765e-05 14.5833 -4.54765e-05C17.3451 0.00298744 19.9928 1.10143 21.9457 3.05428C23.8985 5.00712 24.997 7.65488 25 10.4166C25 10.6929 24.8903 10.9578 24.6949 11.1532C24.4996 11.3485 24.2346 11.4583 23.9583 11.4583C23.6821 11.4583 23.4171 11.3485 23.2218 11.1532C23.0264 10.9578 22.9167 10.6929 22.9167 10.4166C22.9142 8.20725 22.0354 6.08907 20.4732 4.5268C18.9109 2.96454 16.7927 2.08577 14.5833 2.08329C14.3071 2.08329 14.0421 1.97354 13.8468 1.77819C13.6514 1.58284 13.5417 1.31789 13.5417 1.04162ZM14.5833 6.24995C15.6884 6.24995 16.7482 6.68894 17.5296 7.47034C18.311 8.25174 18.75 9.31155 18.75 10.4166C18.75 10.6929 18.8598 10.9578 19.0551 11.1532C19.2505 11.3485 19.5154 11.4583 19.7917 11.4583C20.0679 11.4583 20.3329 11.3485 20.5282 11.1532C20.7236 10.9578 20.8333 10.6929 20.8333 10.4166C20.8317 8.75953 20.1727 7.17077 19.0009 5.99903C17.8292 4.82729 16.2404 4.16828 14.5833 4.16662C14.3071 4.16662 14.0421 4.27637 13.8468 4.47172C13.6514 4.66707 13.5417 4.93202 13.5417 5.20829C13.5417 5.48455 13.6514 5.74951 13.8468 5.94486C14.0421 6.14021 14.3071 6.24995 14.5833 6.24995ZM24.0552 17.4364C24.6589 18.0417 24.9979 18.8617 24.9979 19.7166C24.9979 20.5715 24.6589 21.3915 24.0552 21.9968L23.1073 23.0895C14.576 31.2572 -6.18437 10.502 1.8573 1.9437L3.05521 0.902038C3.66122 0.315243 4.47389 -0.00936935 5.31741 -0.00157168C6.16092 0.00622599 6.96745 0.345807 7.56251 0.943705C7.5948 0.975996 9.52501 3.48329 9.52501 3.48329C10.0977 4.08498 10.4166 4.88426 10.4152 5.71496C10.4139 6.54566 10.0924 7.34388 9.51771 7.9437L8.31146 9.46037C8.97901 11.0824 9.96049 12.5565 11.1995 13.798C12.4385 15.0395 13.9106 16.0239 15.5313 16.6947L17.0573 15.4812C17.6572 14.9069 18.4553 14.5859 19.2857 14.5847C20.1162 14.5836 20.9152 14.9024 21.5167 15.475C21.5167 15.475 24.0229 17.4041 24.0552 17.4364ZM22.6219 18.951C22.6219 18.951 20.1292 17.0333 20.0969 17.001C19.8823 16.7882 19.5923 16.6688 19.2901 16.6688C18.9879 16.6688 18.6979 16.7882 18.4833 17.001C18.4552 17.0302 16.3542 18.7041 16.3542 18.7041C16.2126 18.8168 16.0441 18.8907 15.8653 18.9185C15.6864 18.9462 15.5035 18.9269 15.3344 18.8625C13.2349 18.0808 11.3279 16.857 9.74254 15.274C8.15723 13.691 6.93063 11.7858 6.14584 9.68746C6.07625 9.51605 6.05357 9.32921 6.08011 9.14614C6.10666 8.96307 6.18148 8.79037 6.29688 8.64579C6.29688 8.64579 7.97084 6.5437 7.99896 6.51662C8.21174 6.30202 8.33113 6.01205 8.33113 5.70985C8.33113 5.40765 8.21174 5.11768 7.99896 4.90308C7.96667 4.87183 6.04896 2.37704 6.04896 2.37704C5.83115 2.18173 5.54688 2.07714 5.25443 2.08469C4.96198 2.09224 4.68349 2.21137 4.47605 2.41766L3.27813 3.45933C-2.59895 10.526 15.3917 27.5187 21.5844 21.6666L22.5333 20.5729C22.7557 20.3669 22.8893 20.0825 22.9058 19.7799C22.9223 19.4772 22.8205 19.18 22.6219 18.951Z" fill="#07A69C"/>
</g>
<defs>
<clipPath id="clip0_90_33">
<rect width="25" height="25" fill="white"/>
</clipPath>
</defs>
</svg>
