<svg width="16" height="16" viewBox="0 0 16 16" fill="none" xmlns="http://www.w3.org/2000/svg">
<g clip-path="url(#clip0_509_326)">
<path d="M12.4332 2.93324H12.1115L10.7283 1.13964C10.55 0.910246 10.3219 0.724433 10.0612 0.59627C9.80048 0.468107 9.51401 0.400956 9.2235 0.399902L6.7763 0.399902C6.48579 0.400956 6.19933 0.468107 5.93861 0.59627C5.6779 0.724433 5.44977 0.910246 5.2715 1.13964L3.8883 2.93324H3.56657C2.72703 2.93424 1.92216 3.26819 1.32851 3.86184C0.734861 4.45549 0.400908 5.26036 0.399902 6.0999L0.399902 12.4332C0.400908 13.2728 0.734861 14.0776 1.32851 14.6713C1.92216 15.2649 2.72703 15.5989 3.56657 15.5999H12.4332C13.2728 15.5989 14.0776 15.2649 14.6713 14.6713C15.2649 14.0776 15.5989 13.2728 15.5999 12.4332V6.0999C15.5989 5.26036 15.2649 4.45549 14.6713 3.86184C14.0776 3.26819 13.2728 2.93424 12.4332 2.93324ZM6.2747 1.91357C6.33403 1.83697 6.41004 1.77491 6.49696 1.73211C6.58388 1.68931 6.67942 1.66689 6.7763 1.66657H9.2235C9.32037 1.66699 9.41588 1.68944 9.50278 1.73224C9.58969 1.77503 9.66571 1.83704 9.7251 1.91357L10.5117 2.93324H5.4881L6.2747 1.91357ZM14.3332 12.4332C14.3332 12.9371 14.1331 13.4204 13.7767 13.7767C13.4204 14.1331 12.9371 14.3332 12.4332 14.3332H3.56657C3.06266 14.3332 2.57939 14.1331 2.22307 13.7767C1.86675 13.4204 1.66657 12.9371 1.66657 12.4332V6.0999C1.66657 5.59599 1.86675 5.11272 2.22307 4.7564C2.57939 4.40008 3.06266 4.1999 3.56657 4.1999H12.4332C12.9371 4.1999 13.4204 4.40008 13.7767 4.7564C14.1331 5.11272 14.3332 5.59599 14.3332 6.0999V12.4332Z" fill="white"/>
<path d="M7.99971 5.46655C7.24814 5.46655 6.51345 5.68942 5.88854 6.10697C5.26363 6.52452 4.77658 7.118 4.48897 7.81236C4.20135 8.50671 4.1261 9.27077 4.27272 10.0079C4.41935 10.745 4.78126 11.4221 5.3127 11.9536C5.84414 12.485 6.52124 12.8469 7.25837 12.9935C7.99549 13.1402 8.75955 13.0649 9.45391 12.7773C10.1483 12.4897 10.7417 12.0026 11.1593 11.3777C11.5768 10.7528 11.7997 10.0181 11.7997 9.26655C11.7987 8.25904 11.398 7.29308 10.6856 6.58066C9.97318 5.86824 9.00722 5.46756 7.99971 5.46655ZM7.99971 11.7999C7.49866 11.7999 7.00887 11.6513 6.59226 11.3729C6.17566 11.0946 5.85096 10.6989 5.65921 10.236C5.46747 9.77311 5.4173 9.26374 5.51505 8.77232C5.6128 8.28091 5.85408 7.82951 6.20837 7.47522C6.56266 7.12092 7.01406 6.87965 7.50548 6.7819C7.9969 6.68415 8.50627 6.73432 8.96917 6.92606C9.43208 7.1178 9.82773 7.4425 10.1061 7.85911C10.3845 8.27571 10.533 8.76551 10.533 9.26655C10.533 9.93843 10.2661 10.5828 9.79105 11.0579C9.31595 11.533 8.67159 11.7999 7.99971 11.7999Z" fill="white"/>
</g>
<defs>
<clipPath id="clip0_509_326">
<rect width="15.2" height="15.2" fill="white" transform="translate(0.399902 0.399902)"/>
</clipPath>
</defs>
</svg>
