<svg width="15" height="15" viewBox="0 0 15 15" fill="none" xmlns="http://www.w3.org/2000/svg">
<g clip-path="url(#clip0_90_204)">
<path d="M15 7.18754C14.9997 6.75653 14.872 6.33522 14.6331 5.9765C14.3941 5.61779 14.0545 5.33766 13.6569 5.17129C13.4031 3.72277 12.6467 2.41011 11.5207 1.46421C10.3947 0.518311 8.97124 -0.000244141 7.50065 -0.000244141C6.03007 -0.000244141 4.60658 0.518311 3.48057 1.46421C2.35457 2.41011 1.59816 3.72277 1.3444 5.17129C0.890656 5.36219 0.51456 5.70055 0.276933 6.13167C0.0393052 6.56279 -0.0459617 7.06145 0.03492 7.54703C0.115802 8.03261 0.358103 8.47671 0.722644 8.80753C1.08718 9.13834 1.55265 9.33653 2.04378 9.37004C2.36658 10.0551 2.80438 10.6797 3.33815 11.2169C2.55602 12.0709 2.05965 13.1476 1.91815 14.2969C1.90791 14.3784 1.91382 14.4611 1.93555 14.5402C1.95727 14.6194 1.99438 14.6935 2.04476 14.7584C2.09514 14.8232 2.1578 14.8775 2.22916 14.9181C2.30052 14.9587 2.37918 14.9848 2.46065 14.995C2.48637 14.9982 2.51225 14.9998 2.53815 15C2.69026 14.9999 2.83708 14.9442 2.9511 14.8436C3.06512 14.7429 3.13852 14.6041 3.15753 14.4532C3.27084 13.547 3.66791 12.6999 4.2919 12.0332C5.22262 12.7202 6.34346 13.1016 7.50003 13.125C8.65317 13.1014 9.77075 12.7216 10.6994 12.0375C11.3207 12.7032 11.7161 13.5478 11.8294 14.4513C11.8483 14.6023 11.9216 14.7413 12.0356 14.8421C12.1497 14.9429 12.2966 14.9986 12.4488 14.9988C12.4749 14.9987 12.501 14.997 12.5269 14.9938C12.6913 14.9732 12.8408 14.8881 12.9426 14.7574C13.0443 14.6266 13.0899 14.4607 13.0694 14.2963C12.9289 13.1498 12.435 12.0756 11.6563 11.2225C12.193 10.6837 12.6332 10.0567 12.9575 9.36879C13.5111 9.33202 14.0301 9.08626 14.4093 8.68128C14.7885 8.2763 14.9997 7.74235 15 7.18754ZM12.655 8.10817C12.5093 8.08146 12.3587 8.1078 12.2307 8.18243C12.1026 8.25705 12.0055 8.37504 11.9569 8.51504C11.3844 10.1388 9.45628 11.875 7.50003 11.875C5.54378 11.875 3.61565 10.1375 3.04315 8.51379C2.99443 8.37386 2.89729 8.25596 2.76928 8.18135C2.64126 8.10674 2.4908 8.08034 2.34503 8.10692C2.29309 8.1171 2.24042 8.12316 2.18753 8.12504C1.95552 8.12227 1.73278 8.03356 1.56239 7.87607C1.392 7.71858 1.28607 7.5035 1.26508 7.27243C1.24408 7.04136 1.30953 6.81071 1.44875 6.62509C1.58796 6.43948 1.79107 6.31208 2.01878 6.26754C2.15166 6.24345 2.27317 6.17697 2.36511 6.07805C2.45705 5.97912 2.51447 5.85308 2.52878 5.71879C2.61225 4.91961 2.88803 4.15253 3.33254 3.48316C3.77705 2.81378 4.37707 2.26201 5.08128 1.87504C4.97894 2.2726 4.97423 2.68901 5.06753 3.08879C5.1946 3.61748 5.49057 4.09032 5.91057 4.43565C6.33057 4.78097 6.85171 4.97995 7.39499 5.00242C7.93826 5.0249 8.47405 4.86963 8.92114 4.56017C9.36823 4.25071 9.70223 3.80393 9.87253 3.28754C9.9003 3.19581 9.90608 3.09883 9.88941 3.00445C9.87275 2.91007 9.8341 2.82093 9.77659 2.74426C9.71909 2.66759 9.64434 2.60553 9.5584 2.5631C9.47246 2.52067 9.37774 2.49907 9.2819 2.50004H9.18753C9.07258 2.50381 8.9618 2.54405 8.87124 2.61495C8.78068 2.68585 8.71502 2.78373 8.68378 2.89442C8.61113 3.11292 8.47953 3.30712 8.30351 3.45557C8.12749 3.60403 7.91388 3.70098 7.68625 3.73573C7.45862 3.77047 7.22581 3.74167 7.01351 3.65249C6.80122 3.56331 6.61768 3.41722 6.48315 3.23034C6.34862 3.04346 6.26832 2.82305 6.25112 2.59342C6.23391 2.3638 6.28047 2.13388 6.38566 1.92905C6.49084 1.72421 6.65057 1.5524 6.84721 1.43258C7.04385 1.31277 7.26976 1.2496 7.50003 1.25004C8.73492 1.24709 9.92698 1.70248 10.8454 2.52803C11.7638 3.35359 12.3431 4.49056 12.4713 5.71879C12.4856 5.85308 12.543 5.97912 12.635 6.07805C12.7269 6.17697 12.8484 6.24345 12.9813 6.26754C13.209 6.31208 13.4121 6.43948 13.5513 6.62509C13.6905 6.81071 13.756 7.04136 13.735 7.27243C13.714 7.5035 13.6081 7.71858 13.4377 7.87607C13.2673 8.03356 13.0445 8.12227 12.8125 8.12504C12.7597 8.12358 12.707 8.11793 12.655 8.10817Z" fill="#07A69C"/>
<path d="M5.9375 8.125C6.45527 8.125 6.875 7.70527 6.875 7.1875C6.875 6.66973 6.45527 6.25 5.9375 6.25C5.41973 6.25 5 6.66973 5 7.1875C5 7.70527 5.41973 8.125 5.9375 8.125Z" fill="#07A69C"/>
<path d="M9.0625 8.125C9.58027 8.125 10 7.70527 10 7.1875C10 6.66973 9.58027 6.25 9.0625 6.25C8.54473 6.25 8.125 6.66973 8.125 7.1875C8.125 7.70527 8.54473 8.125 9.0625 8.125Z" fill="#07A69C"/>
</g>
<defs>
<clipPath id="clip0_90_204">
<rect width="15" height="15" fill="white"/>
</clipPath>
</defs>
</svg>
