<svg width="11" height="11" viewBox="0 0 11 11" fill="none" xmlns="http://www.w3.org/2000/svg">
<path d="M5.5001 10.4287C2.78241 10.4287 0.571533 8.2178 0.571533 5.5001C0.571533 2.78241 2.78241 0.571533 5.5001 0.571533C8.2178 0.571533 10.4287 2.78241 10.4287 5.5001C10.4287 8.2178 8.2178 10.4287 5.5001 10.4287ZM5.5001 1.39296C3.23543 1.39296 1.39296 3.23543 1.39296 5.5001C1.39296 7.76478 3.23543 9.60725 5.5001 9.60725C7.76478 9.60725 9.60725 7.76478 9.60725 5.5001C9.60725 3.23543 7.76478 1.39296 5.5001 1.39296ZM7.55368 5.5001C7.55368 5.27298 7.37009 5.08939 7.14296 5.08939H5.91082V3.03582C5.91082 2.80869 5.72682 2.6251 5.5001 2.6251C5.27339 2.6251 5.08939 2.80869 5.08939 3.03582V5.5001C5.08939 5.72723 5.27339 5.91082 5.5001 5.91082H7.14296C7.37009 5.91082 7.55368 5.72723 7.55368 5.5001Z" fill="white"/>
</svg>
