<svg width="25" height="25" viewBox="0 0 25 25" fill="none" xmlns="http://www.w3.org/2000/svg">
<path d="M18.7501 6.25005C18.5547 6.05477 18.2898 5.94507 18.0136 5.94507C17.7374 5.94507 17.4725 6.05477 17.2771 6.25005L12.5001 11.0271L7.72297 6.25005C7.52763 6.05477 7.26273 5.94507 6.98651 5.94507C6.7103 5.94507 6.4454 6.05477 6.25005 6.25005C6.05477 6.4454 5.94507 6.7103 5.94507 6.98651C5.94507 7.26273 6.05477 7.52763 6.25005 7.72297L11.0271 12.5001L6.25005 17.2771C6.05477 17.4725 5.94507 17.7374 5.94507 18.0136C5.94507 18.2898 6.05477 18.5547 6.25005 18.7501C6.4454 18.9453 6.7103 19.055 6.98651 19.055C7.26273 19.055 7.52763 18.9453 7.72297 18.7501L12.5001 13.973L17.2771 18.7501C17.4725 18.9453 17.7374 19.055 18.0136 19.055C18.2898 19.055 18.5547 18.9453 18.7501 18.7501C18.9453 18.5547 19.055 18.2898 19.055 18.0136C19.055 17.7374 18.9453 17.4725 18.7501 17.2771L13.973 12.5001L18.7501 7.72297C18.9453 7.52763 19.055 7.26273 19.055 6.98651C19.055 6.7103 18.9453 6.4454 18.7501 6.25005Z" fill="#07A69C"/>
</svg>
