<svg width="32" height="32" viewBox="0 0 32 32" fill="none" xmlns="http://www.w3.org/2000/svg">
<circle cx="16" cy="16" r="15.5" fill="white" stroke="#07A69C"/>
<g clip-path="url(#clip0_90_272)">
<path d="M13.6484 9.6711L12.9903 8.62773C12.7814 8.29693 12.8806 7.85989 13.2113 7.65093C13.5421 7.44268 13.9792 7.54114 14.1881 7.87193L14.8348 8.8976C15.2492 8.69998 15.704 8.55123 16.2076 8.47756V7.7076C16.2076 7.3166 16.5249 6.99927 16.9159 6.99927C17.3069 6.99927 17.6243 7.3166 17.6243 7.7076V8.47402C18.0748 8.54131 18.4707 8.68227 18.8235 8.88202L19.4751 7.90452C19.6919 7.57868 20.1318 7.49085 20.4576 7.70831C20.7834 7.92577 20.8713 8.36493 20.6538 8.69077L19.6834 10.1464C17.3218 10.7145 15.8556 11.9109 15.1848 12.7368C14.6025 12.1581 13.6328 11.4611 12.2459 11.2904C12.5689 10.7853 13.0378 10.191 13.647 9.6711H13.6484ZM23.2874 11.2521L22.5486 11.2507C17.3282 11.2507 15.9505 14.0961 15.8938 14.2172C15.8166 15.5149 15.1401 17.4932 13.1271 18.7349C12.8147 18.9276 12.4081 18.8553 12.18 18.5678C12.1772 18.5642 12.1736 18.56 12.1708 18.5564C11.9101 18.2256 12.027 17.7461 12.3861 17.5265C14.2406 16.3953 14.4361 14.6401 14.4446 14.0224C14.1003 13.6002 13.2808 12.8211 11.9576 12.6957V12.6681C11.9583 8.84518 9.26877 7.29818 7.84714 7.01414C7.46606 6.93835 7.0956 7.18414 7.01627 7.56593C6.93764 7.94773 7.18414 8.32102 7.56452 8.40248C7.68635 8.42798 10.5409 9.07539 10.5409 12.6674V12.8891C9.32402 13.3814 8.42727 14.6677 8.41806 16.1856C8.44072 19.762 11.4313 22.8461 15.8768 23.8682C16.2628 23.9568 16.6241 24.0014 16.9641 24.0014C17.3955 24.0014 17.7928 23.9298 18.1633 23.7868C20.3676 22.9325 21.5201 19.8626 21.5194 17.2715C21.5194 15.8513 21.1751 15.0913 20.8429 14.356C20.7827 14.2229 20.7211 14.0869 20.6602 13.9431C20.4796 13.5181 20.5801 13.3679 20.6134 13.319C20.7367 13.1349 21.365 12.7439 23.3044 12.6794C23.689 12.6666 23.9993 12.3514 23.9993 11.9668C23.9993 11.573 23.6812 11.2535 23.2874 11.2521Z" fill="#07A69C"/>
</g>
<defs>
<clipPath id="clip0_90_272">
<rect width="17" height="17" fill="white" transform="translate(7 7)"/>
</clipPath>
</defs>
</svg>
