<svg width="15" height="15" viewBox="0 0 15 15" fill="none" xmlns="http://www.w3.org/2000/svg">
<g clip-path="url(#clip0_90_220)">
<path d="M10.9375 1.19824C10.2337 1.20919 9.54526 1.40565 8.9417 1.76779C8.33814 2.12992 7.84082 2.64491 7.49997 3.26074C7.15912 2.64491 6.66181 2.12992 6.05825 1.76779C5.45469 1.40565 4.76626 1.20919 4.06247 1.19824C2.94056 1.24699 1.88354 1.73778 1.12234 2.56339C0.361136 3.389 -0.0423702 4.48232 -2.60682e-05 5.60449C-2.60682e-05 8.44637 2.99122 11.5501 5.49997 13.6545C6.06011 14.1252 6.76832 14.3833 7.49997 14.3833C8.23163 14.3833 8.93984 14.1252 9.49997 13.6545C12.0087 11.5501 15 8.44637 15 5.60449C15.0423 4.48232 14.6388 3.389 13.8776 2.56339C13.1164 1.73778 12.0594 1.24699 10.9375 1.19824ZM8.69685 12.6982C8.36184 12.9804 7.93794 13.1351 7.49997 13.1351C7.062 13.1351 6.63811 12.9804 6.3031 12.6982C3.09185 10.0039 1.24997 7.41887 1.24997 5.60449C1.20725 4.81369 1.47895 4.03807 2.00583 3.4468C2.5327 2.85554 3.272 2.49659 4.06247 2.44824C4.85295 2.49659 5.59225 2.85554 6.11912 3.4468C6.646 4.03807 6.9177 4.81369 6.87497 5.60449C6.87497 5.77025 6.94082 5.92922 7.05803 6.04643C7.17524 6.16364 7.33421 6.22949 7.49997 6.22949C7.66573 6.22949 7.82471 6.16364 7.94192 6.04643C8.05913 5.92922 8.12497 5.77025 8.12497 5.60449C8.08225 4.81369 8.35395 4.03807 8.88083 3.4468C9.4077 2.85554 10.147 2.49659 10.9375 2.44824C11.728 2.49659 12.4672 2.85554 12.9941 3.4468C13.521 4.03807 13.7927 4.81369 13.75 5.60449C13.75 7.41887 11.9081 10.0039 8.69685 12.6957V12.6982Z" fill="#07A69C"/>
</g>
<defs>
<clipPath id="clip0_90_220">
<rect width="15" height="15" fill="white"/>
</clipPath>
</defs>
</svg>
