<svg width="25" height="26" viewBox="0 0 25 26" fill="none" xmlns="http://www.w3.org/2000/svg">
<g clip-path="url(#clip0_142_1379)">
<path d="M16.1053 10.7026H15.5845V10.1818C15.5845 8.74531 14.4157 7.5776 12.9803 7.5776H11.9386C10.5032 7.5776 9.33447 8.74531 9.33447 10.1818V10.7026H8.81364C7.37822 10.7026 6.20947 11.8703 6.20947 13.3068V14.3484C6.20947 15.7849 7.37822 16.9526 8.81364 16.9526H9.33447V17.4734C9.33447 18.9099 10.5032 20.0776 11.9386 20.0776H12.9803C14.4157 20.0776 15.5845 18.9099 15.5845 17.4734V16.9526H16.1053C17.5407 16.9526 18.7095 15.7849 18.7095 14.3484V13.3068C18.7095 11.8703 17.5407 10.7026 16.1053 10.7026ZM16.6261 14.3484C16.6261 14.6349 16.3928 14.8693 16.1053 14.8693H14.5428C13.9678 14.8693 13.5011 15.3349 13.5011 15.9109V17.4734C13.5011 17.7599 13.2678 17.9943 12.9803 17.9943H11.9386C11.6511 17.9943 11.4178 17.7599 11.4178 17.4734V15.9109C11.4178 15.3349 10.9511 14.8693 10.3761 14.8693H8.81364C8.52614 14.8693 8.29281 14.6349 8.29281 14.3484V13.3068C8.29281 13.0203 8.52614 12.7859 8.81364 12.7859H10.3761C10.9511 12.7859 11.4178 12.3203 11.4178 11.7443V10.1818C11.4178 9.89531 11.6511 9.66094 11.9386 9.66094H12.9803C13.2678 9.66094 13.5011 9.89531 13.5011 10.1818V11.7443C13.5011 12.3203 13.9678 12.7859 14.5428 12.7859H16.1053C16.3928 12.7859 16.6261 13.0203 16.6261 13.3068V14.3484ZM22.6647 6.0974L15.373 1.17656C13.6032 -0.0171875 11.3157 -0.0171875 9.54593 1.17656L2.25531 6.0974C0.817806 7.06719 -0.0405273 8.68073 -0.0405273 10.4151V20.0776C-0.0405273 22.9495 2.29593 25.2859 5.16781 25.2859H19.7511C22.623 25.2859 24.9595 22.9495 24.9595 20.0776V10.4151C24.9595 8.68073 24.1011 7.06719 22.6647 6.0974ZM22.8761 20.0776C22.8761 21.8005 21.4741 23.2026 19.7511 23.2026H5.16781C3.44489 23.2026 2.04281 21.8005 2.04281 20.0776V10.4151C2.04281 9.37448 2.55739 8.40677 3.41989 7.82552L10.7126 2.90469C11.2438 2.54531 11.8522 2.36615 12.4605 2.36615C13.0688 2.36615 13.6772 2.54531 14.2084 2.90469L21.5001 7.82552C22.3626 8.40781 22.8772 9.37448 22.8772 10.4151L22.8761 20.0776Z" fill="#07A69C"/>
</g>
<defs>
<clipPath id="clip0_142_1379">
<rect width="25" height="25" fill="white" transform="translate(0 0.285889)"/>
</clipPath>
</defs>
</svg>
