<svg width="32" height="32" viewBox="0 0 32 32" fill="none" xmlns="http://www.w3.org/2000/svg">
<circle cx="16" cy="16" r="15.5" fill="white" stroke="#07A69C"/>
<g clip-path="url(#clip0_90_280)">
<path d="M13.5854 12.5838C14.7817 11.646 15.155 9.93604 14.383 8.57108C13.97 7.8422 13.302 7.32158 12.5009 7.10554C11.7083 6.89162 10.8788 7.00283 10.167 7.41862C7.83229 8.785 7 11.0255 7 12.6667C7 14.174 7.09987 15.1154 7.64104 16.0737C8.20133 17.064 9.20292 17.6193 10.2682 17.6193C10.7931 17.6193 11.3329 17.4847 11.8429 17.2007C12.7276 16.6829 13.2617 15.784 13.3608 14.8193C13.3658 14.8675 13.375 14.9149 13.375 14.9645V24.0007H14.7917V14.9645C14.7917 14.208 14.497 13.4961 13.9615 12.9606L13.5854 12.5838ZM20.833 7.41862C20.1219 7.00283 19.2917 6.89162 18.4991 7.10483C17.698 7.32087 17.0293 7.8415 16.617 8.57037C15.845 9.93604 16.2182 11.6452 17.4146 12.5831L17.0385 12.9592C16.503 13.494 16.2083 14.2059 16.2083 14.9631V23.9993H17.625V14.9631C17.625 14.9142 17.6342 14.8667 17.6392 14.8186C17.7376 15.7833 18.2703 16.6808 19.1522 17.1972C19.1522 17.1972 19.75 17.6285 20.7204 17.6285C21.7787 17.6285 22.7937 17.0718 23.359 16.073C23.9008 15.1147 24 14.174 24 12.666C24 11.0247 23.1684 8.78429 20.833 7.41791V7.41862Z" fill="#07A69C"/>
</g>
<defs>
<clipPath id="clip0_90_280">
<rect width="17" height="17" fill="white" transform="translate(7 7)"/>
</clipPath>
</defs>
</svg>
