<svg width="25" height="26" viewBox="0 0 25 26" fill="none" xmlns="http://www.w3.org/2000/svg">
<g clip-path="url(#clip0_90_69)">
<path d="M12.5 0.159912C10.0277 0.159912 7.61099 0.893024 5.55538 2.26654C3.49976 3.64006 1.89761 5.59229 0.951511 7.87637C0.00541608 10.1604 -0.242126 12.6738 0.24019 15.0985C0.722505 17.5233 1.91301 19.7506 3.66117 21.4987C5.40933 23.2469 7.63661 24.4374 10.0614 24.9197C12.4861 25.402 14.9995 25.1545 17.2835 24.2084C19.5676 23.2623 21.5199 21.6602 22.8934 19.6045C24.2669 17.5489 25 15.1322 25 12.6599C24.9964 9.34581 23.6783 6.16846 21.3349 3.82504C18.9915 1.48161 15.8141 0.163497 12.5 0.159912ZM12.5 23.0766C10.4398 23.0766 8.42583 22.4657 6.71282 21.3211C4.9998 20.1765 3.66467 18.5496 2.87626 16.6462C2.08785 14.7428 1.88156 12.6484 2.28349 10.6277C2.68542 8.60709 3.67751 6.75101 5.13431 5.29422C6.59111 3.83742 8.44718 2.84533 10.4678 2.4434C12.4885 2.04147 14.5829 2.24775 16.4863 3.03617C18.3897 3.82458 20.0165 5.15971 21.1611 6.87272C22.3057 8.58573 22.9167 10.5997 22.9167 12.6599C22.9136 15.4217 21.8152 18.0694 19.8624 20.0223C17.9095 21.9751 15.2617 23.0735 12.5 23.0766Z" fill="#07A69C"/>
<path d="M13.2469 5.43394C12.6462 5.32449 12.0287 5.3484 11.4383 5.50398C10.8479 5.65956 10.2988 5.94301 9.83008 6.33426C9.36131 6.72551 8.98426 7.215 8.72562 7.76811C8.46697 8.32121 8.33304 8.92439 8.33331 9.53498C8.33331 9.81125 8.44306 10.0762 8.63841 10.2716C8.83376 10.4669 9.09871 10.5766 9.37498 10.5766C9.65125 10.5766 9.9162 10.4669 10.1115 10.2716C10.3069 10.0762 10.4166 9.81125 10.4166 9.53498C10.4164 9.2285 10.4837 8.92573 10.6139 8.64827C10.7441 8.37081 10.9339 8.12549 11.1698 7.9298C11.4057 7.73412 11.6818 7.59288 11.9785 7.51618C12.2753 7.43947 12.5853 7.42917 12.8864 7.48602C13.2979 7.5659 13.6763 7.76663 13.9732 8.06257C14.27 8.35852 14.4719 8.73623 14.5531 9.14748C14.6351 9.57915 14.5785 10.0257 14.3914 10.4232C14.2043 10.8208 13.8963 11.149 13.5114 11.361C12.8741 11.7303 12.3475 12.2636 11.9864 12.9056C11.6253 13.5476 11.4429 14.2746 11.4583 15.011V15.785C11.4583 16.0612 11.5681 16.3262 11.7634 16.5216C11.9588 16.7169 12.2237 16.8266 12.5 16.8266C12.7762 16.8266 13.0412 16.7169 13.2365 16.5216C13.4319 16.3262 13.5416 16.0612 13.5416 15.785V15.011C13.5286 14.6485 13.6112 14.289 13.7813 13.9686C13.9514 13.6482 14.2028 13.3783 14.5104 13.186C15.2651 12.7715 15.8728 12.1334 16.2501 11.3594C16.6273 10.5853 16.7555 9.71348 16.6169 8.86365C16.4784 8.01383 16.08 7.22779 15.4765 6.61362C14.8731 5.99946 14.0941 5.58734 13.2469 5.43394Z" fill="#07A69C"/>
<path d="M13.5416 18.9098C13.5416 18.3345 13.0753 17.8682 12.5 17.8682C11.9247 17.8682 11.4583 18.3345 11.4583 18.9098C11.4583 19.4851 11.9247 19.9515 12.5 19.9515C13.0753 19.9515 13.5416 19.4851 13.5416 18.9098Z" fill="#07A69C"/>
</g>
<defs>
<clipPath id="clip0_90_69">
<rect width="25" height="25" fill="white" transform="translate(0 0.159912)"/>
</clipPath>
</defs>
</svg>
