<svg width="15" height="15" viewBox="0 0 15 15" fill="none" xmlns="http://www.w3.org/2000/svg">
<path d="M6.25 1.5625C6.25 0.699375 6.94938 0 7.8125 0C8.67563 0 9.375 0.699375 9.375 1.5625C9.375 2.42563 8.67563 3.125 7.8125 3.125C6.94938 3.125 6.25 2.42563 6.25 1.5625ZM12.5 8.75V14.375C12.5 14.72 12.22 15 11.875 15C11.53 15 11.25 14.72 11.25 14.375V9.12438C10.395 8.6375 9.49 7.91125 8.73938 7.12687C8.7 7.97875 8.71375 9.01812 8.73 10.1762L8.74313 11.2269C8.74813 11.7325 8.555 12.2087 8.19938 12.5681C7.99938 12.77 7.75938 12.915 7.50063 13.0081V14.375C7.50063 14.72 7.22063 15 6.87563 15C6.53063 15 6.25063 14.72 6.25063 14.375V13.125H5.00063V14.375C5.00063 14.72 4.72063 15 4.37563 15C4.03063 15 3.75063 14.72 3.75063 14.375V13.0075C3.48375 12.9113 3.23875 12.7612 3.03563 12.55C2.6775 12.1769 2.49125 11.6862 2.5125 11.1675C2.70438 6.38438 4.1425 3.75 6.56313 3.75C7.64438 3.68187 8.4125 4.63062 8.94313 5.44312C9.73313 6.51 11.0538 7.64 12.1556 8.19062C12.3675 8.29625 12.5013 8.51313 12.5013 8.75H12.5ZM7.30563 5.33437C7.11563 5.11812 6.85063 5 6.5625 5C4.19438 5 3.81938 9.75937 3.76063 11.2175C3.73938 11.5656 4.03563 11.8825 4.38563 11.875H6.8675C7.20563 11.8825 7.50438 11.5775 7.4925 11.24L7.47938 10.1931C7.45688 8.52125 7.43875 7.2 7.56 6.16063C7.595 5.8575 7.5025 5.55687 7.30563 5.33437Z" fill="#07A69C"/>
</svg>
