<svg width="18" height="6" viewBox="0 0 18 6" fill="none" xmlns="http://www.w3.org/2000/svg">
<path d="M17.9392 1.66405C17.7759 1.1969 17.3306 0.861442 16.8076 0.861442H16.7966C16.4567 0.861442 16.1503 1.00294 15.9322 1.2301C15.7137 1.00294 15.4073 0.861442 15.0677 0.861442H15.0567C14.7579 0.861442 14.4847 0.970866 14.2749 1.152V1.05992C14.2677 0.968224 14.1922 0.896163 14.099 0.896163H13.2968C13.1987 0.896163 13.1194 0.975401 13.1194 1.07388V5.43032C13.1194 5.5288 13.1987 5.60805 13.2968 5.60805H14.099C14.1884 5.60805 14.262 5.54126 14.2737 5.45485L14.2734 2.32742C14.2733 2.31696 14.2738 2.30651 14.2749 2.2961C14.2877 2.15648 14.3899 2.04178 14.5515 2.02743H14.6994C14.7669 2.03346 14.8239 2.05724 14.8688 2.09309C14.9386 2.14856 14.9775 2.23384 14.9775 2.32742L14.9805 5.43938C14.9805 5.53786 15.0601 5.61747 15.1578 5.61747H15.9601C16.0548 5.61747 16.1318 5.54201 16.1363 5.44805L16.1359 2.32327C16.1355 2.22063 16.1831 2.12781 16.2665 2.07271C16.3076 2.04629 16.357 2.02857 16.414 2.02328H16.5619C16.7355 2.03837 16.8404 2.17007 16.84 2.32327L16.8431 5.43108C16.8431 5.52956 16.9227 5.6088 17.0204 5.6088H17.8226C17.9204 5.6088 18 5.52956 18 5.43108V2.08856C18 1.86064 17.9743 1.76367 17.9392 1.66405ZM12.5083 0.907512H12.0494V0.161879C12.0494 0.0724465 11.977 0 11.8876 0C11.877 0 11.8668 0.00149749 11.857 0.00339075C11.3483 0.14301 11.4502 0.847516 10.5216 0.907512H10.4314C10.4178 0.907512 10.405 0.909394 10.3925 0.912036C10.3133 0.929781 10.2537 1.00033 10.2537 1.08487V1.8871C10.2537 1.98483 10.3333 2.06444 10.4314 2.06444H10.9155L10.9148 5.46621C10.9148 5.56318 10.9933 5.64167 11.0902 5.64167H11.8834C11.98 5.64167 12.0585 5.56318 12.0585 5.46621L12.0589 2.06444H12.5083C12.606 2.06444 12.6856 1.98483 12.6856 1.8871V1.08487C12.6856 0.987135 12.606 0.907512 12.5083 0.907512Z" fill="#00BAF2"/>
<path d="M9.62197 0.907907H8.81974C8.72201 0.907907 8.64276 0.987531 8.64276 1.08525V2.74407C8.64087 2.8467 8.55786 2.92896 8.45484 2.92896H8.11901C8.01486 2.92896 7.93071 2.84519 7.93071 2.74104L7.92769 1.08526C7.92769 0.987531 7.84807 0.907918 7.75035 0.907918H6.94811C6.85 0.907918 6.77077 0.987531 6.77077 1.08526V2.9033C6.77077 3.59384 7.26319 4.08628 7.9541 4.08628C7.9541 4.08628 8.47258 4.08628 8.48843 4.08929C8.58201 4.09986 8.65483 4.17834 8.65483 4.27494C8.65483 4.37042 8.58352 4.44852 8.49107 4.46022C8.48655 4.46097 8.4824 4.46211 8.47749 4.46287L7.30432 4.46702C7.20621 4.46702 7.12698 4.54663 7.12698 4.64436V5.44622C7.12698 5.54433 7.20621 5.62357 7.30432 5.62357H8.61597C9.30726 5.62357 9.79931 5.13152 9.79931 4.44061V1.08526C9.79931 0.987531 9.72007 0.907907 9.62197 0.907907ZM1.85691 2.37786V2.87294C1.85691 2.97669 1.77276 3.06122 1.669 3.06122L1.15996 3.0616V2.06956H1.669C1.77276 2.06956 1.85691 2.15333 1.85691 2.25748V2.37786ZM1.92747 0.907715H0.173955C0.0777305 0.907715 0 0.98583 0 1.08167V1.86768C0 1.86919 0.000374373 1.8707 0.000374373 1.87221C0.000374373 1.87598 0 1.87976 0 1.88315V5.44075C0 5.53735 0.0724465 5.61622 0.162264 5.61848H0.979573C1.07731 5.61848 1.15692 5.53924 1.15692 5.44113L1.15995 4.22193H1.92746C2.56969 4.22193 3.01723 3.77629 3.01723 3.1314V1.99976C3.01723 1.35488 2.5697 0.907715 1.92747 0.907715ZM5.18549 4.26125V4.38653C5.18549 4.39672 5.18399 4.40653 5.18248 4.41596C5.1806 4.42481 5.17808 4.43351 5.17493 4.442C5.15002 4.51219 5.07984 4.56312 4.99644 4.56312H4.6625C4.55835 4.56312 4.47345 4.48388 4.47345 4.38653V4.23521C4.47345 4.23333 4.47307 4.23144 4.47307 4.22956L4.47345 3.82693V3.70089L4.47383 3.69977C4.4742 3.60278 4.55835 3.5243 4.6625 3.5243H4.99644C5.10097 3.5243 5.1855 3.60317 5.1855 3.7009L5.18549 4.26125ZM5.05797 0.912325H3.9448C3.84632 0.912325 3.7667 0.987039 3.7667 1.07873V1.39079C3.7667 1.39268 3.76708 1.39494 3.76708 1.39683C3.76708 1.3991 3.76669 1.40135 3.76669 1.40362V1.83115C3.76669 1.92814 3.85123 2.00738 3.95538 2.00738H5.01532C5.09909 2.02059 5.16551 2.08172 5.17494 2.17718V2.28057C5.16551 2.37151 5.09985 2.43792 5.01985 2.44547H4.49498C3.79689 2.44547 3.29955 2.90923 3.29955 3.56052V4.49332C3.29955 5.14084 3.72708 5.60157 4.42025 5.60157H5.87491C6.13603 5.60157 6.34772 5.40385 6.34772 5.16046V2.11643C6.34772 1.37834 5.96737 0.912325 5.05797 0.912325Z" fill="#1F336B"/>
</svg>
