<svg width="13" height="13" viewBox="0 0 13 13" fill="none" xmlns="http://www.w3.org/2000/svg">
<g clip-path="url(#clip0_142_906)">
<path d="M12.3787 0.621808C12.0105 0.254123 11.5114 0.0476074 10.991 0.0476074C10.4706 0.0476074 9.97147 0.254123 9.60322 0.621808L0.79355 9.43147C0.541269 9.68234 0.341238 9.98073 0.205028 10.3094C0.0688182 10.6381 -0.00086557 10.9905 8.11483e-06 11.3463V12.4583C8.11483e-06 12.602 0.0570764 12.7397 0.158659 12.8413C0.260241 12.9429 0.398016 13 0.541675 13H1.65372C2.00946 13.001 2.36187 12.9314 2.69055 12.7953C3.01923 12.6592 3.31764 12.4592 3.56851 12.207L12.3787 3.39677C12.7462 3.02854 12.9526 2.52954 12.9526 2.00929C12.9526 1.48904 12.7462 0.990036 12.3787 0.621808ZM2.80259 11.4411C2.49709 11.7445 2.08432 11.9154 1.65372 11.9166H1.08334V11.3463C1.08279 11.1328 1.12459 10.9213 1.20632 10.7241C1.28805 10.5269 1.40808 10.3479 1.55947 10.1974L8.24526 3.5116L9.49109 4.75743L2.80259 11.4411ZM11.6123 2.63085L10.2548 3.98881L9.00901 2.74568L10.367 1.38772C10.4488 1.3061 10.5458 1.24139 10.6527 1.19728C10.7595 1.15317 10.8739 1.13054 10.9895 1.13066C11.105 1.13079 11.2195 1.15367 11.3262 1.19801C11.4329 1.24235 11.5298 1.30728 11.6114 1.38908C11.6931 1.47088 11.7578 1.56796 11.8019 1.67477C11.846 1.78158 11.8686 1.89604 11.8685 2.0116C11.8684 2.12716 11.8455 2.24156 11.8012 2.34828C11.7568 2.455 11.6919 2.55193 11.6101 2.63356L11.6123 2.63085Z" fill="#07A69C"/>
</g>
<defs>
<clipPath id="clip0_142_906">
<rect width="13" height="13" fill="white"/>
</clipPath>
</defs>
</svg>
