<svg width="24" height="25" viewBox="0 0 24 25" fill="none" xmlns="http://www.w3.org/2000/svg">
<g clip-path="url(#clip0_90_41)">
<path d="M17.247 10.7073C17.73 11.2 18.365 11.4458 19 11.4458C19.635 11.4458 20.27 11.2 20.752 10.7073L22.535 8.89062C24.485 6.85937 24.485 3.55521 22.535 1.525C21.591 0.541667 20.335 0 19 0C17.665 0 16.409 0.541667 15.464 1.525C13.515 3.55625 13.515 6.86042 15.472 8.89896L17.247 10.7073ZM16.878 2.99896C17.445 2.40833 18.198 2.08333 19 2.08333C19.802 2.08333 20.555 2.40833 21.121 2.99792C22.291 4.21667 22.291 6.19896 21.129 7.40937L19.354 9.21771C19.159 9.41771 18.841 9.41771 18.646 9.21771L16.879 7.41771C15.71 6.19896 15.71 4.21667 16.879 2.99792L16.878 2.99896ZM4 22.9167C4 24.0677 3.105 25 2 25C0.895 25 0 24.0677 0 22.9167C0 21.7656 0.895 20.8333 2 20.8333C3.105 20.8333 4 21.7656 4 22.9167ZM14.5 16.6667C14.5 17.8177 13.605 18.75 12.5 18.75C11.395 18.75 10.5 17.8177 10.5 16.6667C10.5 15.5156 11.395 14.5833 12.5 14.5833C13.605 14.5833 14.5 15.5156 14.5 16.6667ZM2 13.5417C2 11.2437 3.794 9.375 6 9.375H13C13.552 9.375 14 9.84167 14 10.4167C14 10.9917 13.552 11.4583 13 11.4583H6C4.897 11.4583 4 12.3927 4 13.5417C4 14.6906 4.897 15.625 6 15.625H8C8.552 15.625 9 16.0917 9 16.6667C9 17.2417 8.552 17.7083 8 17.7083H6C3.794 17.7083 2 15.8396 2 13.5417ZM24 19.7917C24 22.0896 22.206 23.9583 20 23.9583H7C6.448 23.9583 6 23.4917 6 22.9167C6 22.3417 6.448 21.875 7 21.875H20C21.103 21.875 22 20.9406 22 19.7917C22 18.6427 21.103 17.7083 20 17.7083H17C16.448 17.7083 16 17.2417 16 16.6667C16 16.0917 16.448 15.625 17 15.625H20C22.206 15.625 24 17.4937 24 19.7917ZM20.001 4.98646C20.001 5.56146 19.553 6.02812 19.001 6.02812C18.449 6.02812 18.001 5.56146 18.001 4.98646C18.001 4.41146 18.449 3.94479 19.001 3.94479C19.553 3.94479 20.001 4.41146 20.001 4.98646Z" fill="#07A69C"/>
</g>
<defs>
<clipPath id="clip0_90_41">
<rect width="24" height="25" fill="white"/>
</clipPath>
</defs>
</svg>
